<?xml version="1.0" standalone="no"?>
<!DOCTYPE svg PUBLIC "-//W3C//DTD SVG 20010904//EN"
 "http://www.w3.org/TR/2001/REC-SVG-20010904/DTD/svg10.dtd">
<svg version="1.0" xmlns="http://www.w3.org/2000/svg"
 width="270.000000pt" height="270.000000pt" viewBox="0 0 270.000000 270.000000"
 preserveAspectRatio="xMidYMid meet">
<metadata>
Created by potrace 1.11, written by Peter Selinger 2001-2013
</metadata>
<g transform="translate(0.000000,270.000000) scale(0.100000,-0.100000)"
fill="#000000" stroke="none">
<path d="M1477 2580 c-20 -11 -48 -37 -62 -58 -21 -32 -318 -705 -332 -755 -5
-16 1 -18 71 -15 l76 3 59 130 c32 72 74 165 94 208 l36 77 83 0 c77 0 88 3
153 38 63 34 111 81 143 138 7 12 31 4 143 -44 l134 -59 -2 -39 c-8 -163 -6
-189 16 -239 12 -27 42 -71 67 -96 42 -43 45 -49 39 -83 l-7 -37 77 3 78 3 61
135 c58 127 61 139 61 212 0 123 -15 135 -338 283 -457 208 -565 241 -650 195z"/>
<path d="M1115 2511 c-74 -34 -105 -90 -170 -316 -26 -88 -66 -222 -91 -298
-24 -77 -44 -141 -44 -143 0 -2 32 -4 70 -4 58 0 72 3 77 18 3 9 74 173 158
363 84 190 156 355 159 366 5 16 1 22 -16 27 -42 11 -103 6 -143 -13z"/>
<path d="M867 2439 c-99 -16 -123 -53 -143 -229 -8 -63 -20 -162 -28 -220 -9
-58 -18 -135 -22 -172 l-6 -68 51 0 c44 0 51 3 56 23 3 12 39 166 80 342 41
176 71 322 67 326 -4 3 -29 2 -55 -2z"/>
<path d="M1594 2010 c-124 -25 -222 -116 -248 -232 l-6 -28 340 0 340 0 0 23
c0 30 -48 105 -91 141 -48 41 -146 83 -220 96 -35 5 -66 9 -69 9 -3 -1 -23 -5
-46 -9z"/>
<path d="M351 1930 c-127 -18 -214 -103 -226 -222 -3 -35 -5 -371 -3 -748 3
-758 0 -721 69 -789 19 -19 54 -44 79 -55 45 -21 52 -21 1040 -21 l995 0 48
24 c87 42 124 127 134 303 l6 108 -300 0 c-341 0 -376 5 -442 68 -52 50 -72
116 -78 264 -7 143 14 228 72 296 58 67 87 72 443 72 l305 0 -6 103 c-12 184
-55 265 -165 308 l-57 22 -835 -1 c-892 -2 -1006 2 -1024 31 -8 12 -8 22 0 35
9 13 28 18 83 20 l71 3 0 89 c0 87 -1 90 -22 90 -13 0 -45 2 -73 4 -27 3 -79
1 -114 -4z m580 -738 c32 -16 70 -49 96 -80 l42 -51 21 35 c48 77 166 135 242
119 174 -38 248 -231 160 -420 -56 -119 -209 -254 -390 -344 -93 -47 -112 -53
-105 -36 12 34 -10 65 -91 129 -160 125 -259 260 -286 389 -41 204 135 351
311 259z"/>
<path d="M1851 1114 c-62 -56 -75 -101 -69 -248 7 -160 26 -207 95 -239 46
-21 59 -22 350 -21 278 1 304 2 323 19 19 17 20 30 20 255 0 217 -2 238 -18
253 -17 15 -55 17 -340 17 l-322 0 -39 -36z"/>
</g>
</svg>
